<svg xmlns="http://www.w3.org/2000/svg" xmlns:xlink="http://www.w3.org/1999/xlink" viewBox="0,0,256,256" width="48px" height="48px"><g fill="#f91818" fill-rule="nonzero" stroke="none" stroke-width="1" stroke-linecap="butt" stroke-linejoin="miter" stroke-miterlimit="10" stroke-dasharray="" stroke-dashoffset="0" font-family="none" font-weight="none" font-size="none" text-anchor="none" style="mix-blend-mode: normal"><g transform="scale(10.66667,10.66667)"><path d="M17,3h-10c-2.2,0 -4,1.8 -4,4v10c0,2.2 1.8,4 4,4h10c2.2,0 4,-1.8 4,-4v-10c0,-2.2 -1.8,-4 -4,-4zM15.54,18c-0.33,0 -0.65,-0.17 -0.83,-0.45l-3.23,-4.83l-1.48,1.88v2.4c0,0.55 -0.3,1 -0.67,1h-0.66c-0.37,0 -0.67,-0.45 -0.67,-1v-10c0,-0.55 0.3,-1 0.67,-1h0.66c0.37,0 0.67,0.45 0.67,1v3.83l3.7,-4.47c0.188,-0.228 0.468,-0.36 0.764,-0.36h0.289c0.838,-0.001 1.306,0.968 0.783,1.624l-2.606,3.266l3.709,5.555c0.444,0.664 -0.032,1.555 -0.831,1.555z"></path></g></g></svg>